# xmcd
#
# Track frame offsets: 
#        150
#        9968
#        23613
#        43978
#        58693
#        71131
#        89515
#        109623
#        124310
#        139407
#
# Disc length: 2000 seconds
#
# Revision: 0
# Processed by: cddbd v1.5.2PL0 Copyright (c) Steve Scherf et al.
# Submitted via: ExactAudioCopy v1.0b4
#
DISCID=8c07ce0a
DTITLE=Downchild Blues Band - Blood Run Hot (LP)
DYEAR=1981
DGENRE=Blues
TTITLE0=Hey Hey Little Girl
TTITLE1=Rocket 88
TTITLE2=Could Have Had All Your Lovin'
TTITLE3=Natural Ball
TTITLE4=Drivin' Blues
TTITLE5=Blood Run Hot
TTITLE6=Nine Below Zero
TTITLE7=Shot Full Of Love
TTITLE8=Let' s Get High
TTITLE9=They Where Rockin'
EXTD=
EXTT0=
EXTT1=
EXTT2=
EXTT3=
EXTT4=
EXTT5=
EXTT6=
EXTT7=
EXTT8=
EXTT9=
PLAYORDER=
